<?xml version="1.0" standalone="no"?>
<!DOCTYPE svg PUBLIC "-//W3C//DTD SVG 20010904//EN"
 "http://www.w3.org/TR/2001/REC-SVG-20010904/DTD/svg10.dtd">
<svg version="1.0" xmlns="http://www.w3.org/2000/svg"
 width="128.000000pt" height="128.000000pt" viewBox="0 0 128.000000 128.000000"
 preserveAspectRatio="xMidYMid meet">
<metadata>
Created by potrace 1.14, written by Peter Selinger 2001-2017
</metadata>
<g transform="translate(0.000000,128.000000) scale(0.100000,-0.100000)"
fill="#000000" stroke="none">
<path d="M625 1057 c-65 -22 -102 -45 -150 -92 l-44 -45 -49 10 c-81 15 -162
-19 -209 -89 -21 -30 -41 -97 -32 -106 2 -2 25 2 52 9 31 8 61 25 88 51 40 40
41 40 118 40 72 0 82 3 122 31 63 45 132 66 214 66 107 0 175 -30 259 -114 37
-37 76 -68 86 -68 16 0 17 5 9 41 -23 99 -98 193 -194 242 -50 26 -73 31 -145
34 -52 2 -100 -2 -125 -10z"/>
<path d="M645 876 c-58 -18 -86 -34 -127 -74 l-38 -36 -35 17 c-20 9 -46 17
-58 17 -31 0 -85 -36 -99 -65 -7 -15 -19 -25 -33 -25 -12 0 -46 -7 -76 -16
-67 -20 -148 -97 -167 -160 -28 -93 -1 -194 69 -261 67 -64 62 -63 561 -63
417 0 456 2 493 19 88 40 144 127 145 224 0 100 -47 178 -133 221 -29 14 -68
28 -88 31 -28 4 -42 15 -67 50 -77 110 -222 160 -347 121z"/>
</g>
</svg>
